<?xml version="1.0" encoding="utf-8"?>
<!-- Generator: Adobe Illustrator 22.1.0, SVG Export Plug-In . SVG Version: 6.00 Build 0)  -->
<svg version="1.1" xmlns="http://www.w3.org/2000/svg" xmlns:xlink="http://www.w3.org/1999/xlink" x="0px" y="0px"
	 width="468px" height="194.3px" viewBox="0 0 468 194.3" enable-background="new 0 0 468 194.3" xml:space="preserve">
<g>
	<path fill="#321C1F" d="M415.3,113.4h11.1v80.3h-11.1V113.4z M361.9,193.7H373v-80.3h-11.1V193.7z M102.2,116.9h8.9v76.7h11.1
		v-76.7h15.2v76.7h11.1v-76.7h8.9v-3.6h-55.2V116.9z M384.5,193.7h10.9v-39.2h12.1v-3h-12.1v-34.7h12.4v-3.4h-23.3V193.7z
		 M25.3,153.5c-3.5-3-9.6-8.1-11.4-9.5c-1.8-1.4-2.8-3-2.8-5.6c0-2.6,0-13.1,0-16.9c0-4.2,1.9-6,4.4-6s4.4,1.7,4.4,6v13.9
		c0,2.5,2,4.4,4.4,4.4h5.8c0,0,0-12.2,0-16.9c0-8.6-4.3-10.3-14.9-10.3S0,114.5,0,123v17.7c0,5.5,3,8.3,6.1,10.9
		c3.1,2.6,7.4,6.2,9.2,7.6c1.8,1.5,4.5,3.3,4.5,7.8s0,11.5,0,18.1c0,4.5-1.7,6.3-4.6,6.3c-2.9,0-4.6-1.9-4.6-6.3v-15.6
		c0-2.5-2-4.5-4.5-4.5H0c0,0,0,12.6,0,19.4c0,8.5,6.1,9.9,15.3,9.9c7.4,0,15.3-1.4,15.3-10c0-9.3,0-12.5,0-18.5
		C30.5,159,29.1,156.8,25.3,153.5z M40.8,193.7h23.3v-3.4H51.8v-35.8h12.1v-3H51.8v-34.7h12.4v-3.4H40.8V193.7z M175.7,113.4h-11.1
		v80.3h22v-3.2h-10.9V113.4z M191.5,193.7h23.4v-3.4h-12.4v-35.8h12.1v-3h-12.1v-34.7h12.4v-3.4h-23.4V193.7z M86.2,113.4h-8.6
		l-8.3,80.3h4.3l1.8-17.5H83l-0.3-3.5h-7l5.6-54.4h0.2l6.5,75.5h11.5l-7.3-74.7C92,115.8,89.3,113.4,86.2,113.4z M250.8,113.4
		c3,0,25,0,25,0v37.4c0,5.3-4.3,9.5-9.5,9.5H256v33.4h-10.8v-74.8C245.2,115.9,247.7,113.4,250.8,113.4z M256,156.7h4.5
		c2.4,0,4.4-2,4.4-4.4v-35.5H256V156.7z M298.1,113.4h-8.6l-8.3,80.3h4.3l1.8-17.5h7.7l-0.3-3.5h-7l5.6-54.4h0.2l6.5,75.5h11.5
		l-7.3-74.7C303.9,115.8,301.3,113.4,298.1,113.4z M335.9,112.7c-10.6,0-15.5,1.2-15.5,12.2c0,8.3,0,38.9,0,57.1
		c0,11.1,5,12.2,15.5,12.2c10.5,0,15.5-1.2,15.5-12.2c0-1.2,0-12.3,0-21.1h-6.1c-2.4,0-4.3,1.9-4.3,4.2c0,5.8,0,12.3,0,18.2
		c0,5.9-0.9,8.1-4.6,8.1c-3.8,0-4.7-2.2-4.7-8.1c0-18.6,0-53.9,0-59.8c0-6.5,0.9-8.1,4.6-8.1s4.6,1.6,4.6,8.1c0,3.8,0,11.1,0,15.4
		c0,2.4,2,4.4,4.4,4.4h6c0,0,0-6.9,0-18.4C351.3,113.9,346.4,112.7,335.9,112.7z M462,143.4h6c0,0,0-6.9,0-18.4
		c0-11.1-4.9-12.2-15.5-12.2s-15.5,1.2-15.5,12.2c0,8.3,0,38.9,0,57.1c0,11.1,5,12.2,15.5,12.2c10.5,0,15.5-1.2,15.5-12.2
		c0-1.2,0-12.3,0-21.1h-6.1c-2.4,0-4.3,1.9-4.3,4.2c0,5.8,0,12.3,0,18.2c0,5.9-0.9,8.1-4.6,8.1c-3.8,0-4.7-2.2-4.7-8.1
		c0-18.6,0-53.9,0-59.8c0-6.5,0.9-8.1,4.6-8.1s4.6,1.6,4.6,8.1c0,3.8,0,11.1,0,15.4C457.6,141.4,459.6,143.4,462,143.4z"/>
	<path fill="#872937" d="M151,46.1c4-3,9.1-4.8,14.3-4.8h12.1c0.3,0,0.4,0.4,0.2,0.5l-43.9,32.9c-0.2,0.2-0.5,0-0.5-0.2v-15
		C133.1,59.5,147,49.1,151,46.1z M205.1,41.3h-14c-3.9,0-7.8,1.3-10.8,3.6c-3,2.2-50.6,37.8-50.6,37.8l0-44.5c0-1.3,0.6-2.5,1.6-3.2
		l12.3-9.3v2.3c0,1.8-0.8,3.5-2.3,4.6l-8.1,6.1c-0.1,0.1-0.2,0.2-0.2,0.4v14.5c0,0.3,0.3,0.4,0.5,0.2l17-12.7
		c4.2-3.2,6.7-8.2,6.7-13.5V0.3c0-0.3-0.3-0.4-0.5-0.3l-36.6,27.4c-2.8,2.1-4.5,5.4-4.5,8.9v15.2v0l-2.8-2.1l-9.1-6.8
		c-1.2-0.9-1.9-2.3-1.9-3.8v-2.7l10,7.4c0.2,0.2,0.5,0,0.5-0.2V33.2c0-3.1-1.5-6-3.9-7.9L88.7,10.5c-0.2-0.2-0.5,0-0.5,0.2v24.4l0,0
		v6.4c0,3.2,1.5,6.1,4,8l23.6,17.6v5L88.7,51.9c-0.2-0.2-0.5,0-0.5,0.3v8.7c0,3.9,1.9,7.6,5,10l36.6,27.3l75.6-56.4
		C205.6,41.7,205.4,41.3,205.1,41.3z"/>
</g>
</svg>
